<svg style="width:0; height:0; visibility: hidden;" xmlns="http://www.w3.org/2000/svg">
	<symbol id="svg-logo" viewBox="0 0 398 80">
		<g>
			<path
				d="M349.517 44.4574V42.5145L351.985 42.4182C352.798 42.3832 353.315 42.2694 353.551 42.0594C353.796 41.8493 353.91 41.3942 353.91 40.7116V26.6823C353.91 25.9471 353.709 25.457 353.289 25.2032C352.868 24.9582 352.002 24.8357 350.681 24.8357C350.505 24.8357 350.225 24.8357 349.84 24.8619C349.455 24.8794 349.14 24.8882 348.921 24.8882V23.0853L358.846 22.5164V26.9536C360.054 25.4395 361.375 24.3105 362.811 23.6016C364.246 22.8752 365.865 22.5164 367.685 22.5164C369.69 22.5164 371.335 22.884 372.63 23.6279C373.926 24.3631 374.862 25.457 375.457 26.9099C376.709 25.3783 378.048 24.2668 379.483 23.5666C380.91 22.8665 382.581 22.5164 384.472 22.5164C387.15 22.5164 389.215 23.1553 390.685 24.4418C392.147 25.7284 392.882 27.5487 392.882 29.9118V40.7204C392.882 41.3943 393.005 41.8406 393.25 42.0594C393.495 42.2782 394.011 42.4007 394.808 42.427L397.276 42.5232V44.4662H383.43V42.5232L385.723 42.427C386.52 42.392 387.045 42.2694 387.307 42.0331C387.57 41.8056 387.701 41.368 387.701 40.7204V29.7367C387.701 28.3364 387.272 27.2599 386.415 26.516C385.557 25.7634 384.314 25.387 382.712 25.387C380.393 25.387 378.66 26.0259 377.514 27.3037C376.376 28.5815 375.798 30.5156 375.798 33.0974V40.7204C375.798 41.3943 375.921 41.8406 376.184 42.0594C376.437 42.2782 376.954 42.4007 377.75 42.427L380.218 42.5232V44.4662H366.373V42.5232L368.718 42.427C369.488 42.392 370.005 42.2694 370.259 42.0419C370.521 41.8143 370.644 41.3767 370.644 40.7204V30.4106C370.644 28.6252 370.267 27.3387 369.523 26.551C368.779 25.7721 367.572 25.3783 365.891 25.3783C363.677 25.3783 362.005 26.0259 360.876 27.3212C359.747 28.6252 359.179 30.5419 359.179 33.0887V40.7116C359.179 41.4118 359.301 41.8668 359.546 42.0769C359.8 42.2782 360.308 42.392 361.104 42.427L363.292 42.5232V44.4662H349.552L349.517 44.4574ZM325.484 33.7888C325.484 37.0796 326.044 39.4951 327.164 41.0267C328.293 42.5495 330.061 43.3109 332.485 43.3109C334.91 43.3109 336.809 42.5583 337.938 41.0529C339.058 39.5564 339.618 37.1321 339.618 33.7888C339.618 30.4456 339.058 28.0213 337.938 26.5073C336.809 24.9932 335.006 24.2318 332.538 24.2318C330.07 24.2318 328.293 24.9932 327.164 26.5073C326.044 28.0213 325.484 30.4544 325.484 33.7888ZM319.506 33.7888C319.506 30.3756 320.714 27.6188 323.13 25.5096C325.545 23.3916 328.678 22.3414 332.529 22.3414C336.38 22.3414 339.539 23.3916 341.937 25.5096C344.335 27.6188 345.534 30.3844 345.534 33.7888C345.534 37.1933 344.335 39.9414 341.929 42.0506C339.522 44.1511 336.389 45.2101 332.529 45.2101C328.67 45.2101 325.545 44.1598 323.13 42.0506C320.714 39.9414 319.506 37.1933 319.506 33.7888ZM295.587 33.7888C295.587 37.0796 296.147 39.4951 297.268 41.0267C298.397 42.5495 300.165 43.3109 302.589 43.3109C305.013 43.3109 306.912 42.5583 308.041 41.0529C309.161 39.5564 309.722 37.1321 309.722 33.7888C309.722 30.4456 309.161 28.0213 308.041 26.5073C306.912 24.9932 305.109 24.2318 302.641 24.2318C300.173 24.2318 298.397 24.9932 297.268 26.5073C296.147 28.0213 295.587 30.4544 295.587 33.7888ZM289.61 33.7888C289.61 30.3756 290.818 27.6188 293.233 25.5096C295.649 23.3916 298.782 22.3414 302.633 22.3414C306.483 22.3414 309.643 23.3916 312.041 25.5096C314.439 27.6188 315.638 30.3844 315.638 33.7888C315.638 37.1933 314.439 39.9414 312.032 42.0506C309.625 44.1511 306.492 45.2101 302.633 45.2101C298.773 45.2101 295.649 44.1598 293.233 42.0506C290.818 39.9414 289.61 37.1933 289.61 33.7888ZM271.843 44.4574V42.5145L274.618 42.4182C275.414 42.3832 275.939 42.2607 276.202 42.0506C276.464 41.8318 276.596 41.3855 276.596 40.7116V14.4384C276.596 13.7032 276.394 13.2131 275.974 12.9593C275.563 12.7143 274.705 12.5918 273.419 12.5918C273.261 12.5918 272.999 12.5917 272.622 12.618C272.246 12.6355 271.94 12.6443 271.712 12.6443V10.8414L281.882 10.2812V40.7204C281.882 41.3943 282.004 41.8406 282.267 42.0594C282.521 42.2782 283.055 42.4007 283.86 42.427L286.38 42.5232V44.4662H271.817L271.843 44.4574ZM243.942 15.2348V26.1747H248.581C252.624 26.1747 255.425 25.6933 257 24.7131C258.576 23.7329 259.372 22.0526 259.372 19.6545C259.372 17.2565 258.689 15.7074 257.307 14.7097C255.932 13.712 253.648 13.2131 250.48 13.2131H246.83C245.701 13.2131 244.931 13.3444 244.538 13.6157C244.144 13.8783 243.942 14.4209 243.942 15.2436V15.2348ZM231.637 44.4574V42.2957H234.648C235.873 42.2957 236.696 42.1382 237.116 41.8318C237.527 41.5255 237.737 40.9304 237.737 40.064V15.5061C237.737 14.6484 237.536 14.0708 237.116 13.7558C236.696 13.4494 235.882 13.2919 234.648 13.2919H231.637V11.1039H253.569C257.639 11.1039 260.746 11.7953 262.881 13.1781C265.017 14.5522 266.085 16.5826 266.085 19.2432C266.085 21.2386 265.271 22.884 263.634 24.1793C261.998 25.4745 259.564 26.3935 256.344 26.9536C260.326 27.3562 263.31 28.2664 265.28 29.6755C267.249 31.0933 268.238 33.0274 268.238 35.4955C268.238 38.3311 266.89 40.5366 264.212 42.0944C261.534 43.661 257.744 44.4399 252.852 44.4399H231.637V44.4574ZM243.942 28.2051V40.1077C243.942 40.9917 244.152 41.578 244.581 41.8581C245.01 42.1469 245.85 42.2869 247.119 42.2869H251.259C254.768 42.2869 257.307 41.7443 258.847 40.6591C260.396 39.5651 261.166 37.806 261.166 35.3729C261.166 32.8174 260.238 30.9795 258.392 29.868C256.536 28.7565 253.464 28.1964 249.159 28.1964H243.942V28.2051ZM200.761 14.4472C200.761 13.712 200.55 13.2219 200.122 12.9681C199.693 12.723 198.826 12.6005 197.505 12.6005C197.347 12.6005 197.076 12.6005 196.691 12.6268C196.306 12.6443 195.991 12.653 195.772 12.653V10.8501L206.029 10.29V26.6998C207.176 25.2995 208.515 24.258 210.029 23.5666C211.56 22.8752 213.276 22.5252 215.201 22.5252C217.975 22.5252 220.137 23.164 221.66 24.4506C223.192 25.7371 223.953 27.5575 223.953 29.9205V40.7291C223.953 41.403 224.076 41.8493 224.321 42.0681C224.566 42.2869 225.082 42.4095 225.878 42.4357L228.373 42.532V44.4749H214.378V42.532L216.873 42.4357C217.643 42.4007 218.159 42.2782 218.413 42.0506C218.676 41.8231 218.798 41.3855 218.798 40.7291V29.7455C218.798 28.3452 218.334 27.2687 217.407 26.5248C216.488 25.7721 215.175 25.3958 213.468 25.3958C211 25.3958 209.127 26.0434 207.858 27.3387C206.598 28.6427 205.959 30.5594 205.959 33.1062V40.7291C205.959 41.4293 206.082 41.8844 206.344 42.0944C206.598 42.2957 207.106 42.4095 207.885 42.4445L210.379 42.5407V44.4837H196.332V42.5407L198.765 42.4445C199.579 42.4095 200.113 42.2869 200.358 42.0769C200.62 41.8581 200.743 41.403 200.743 40.7379V14.4647L200.761 14.4472ZM177.612 25.1245H172.973V23.2691C175.371 23.1203 177.227 22.2363 178.557 20.6172C179.87 18.9894 180.605 16.6964 180.736 13.712H183.169V23.094H191.527V25.1245H182.889V38.4711C182.889 39.9589 183.152 40.9917 183.677 41.5518C184.193 42.1119 185.068 42.4007 186.32 42.4007C187.886 42.4007 189.059 41.8931 189.829 40.8779C190.6 39.8627 191.037 38.2786 191.133 36.1256L193.286 36.0993V36.712C193.286 39.4951 192.516 41.613 190.967 43.0746C189.418 44.5274 187.169 45.2626 184.228 45.2626C181.83 45.2626 180.124 44.79 179.126 43.8535C178.128 42.9171 177.629 41.2542 177.629 38.8825V25.1332L177.612 25.1245ZM157.832 40.7204C157.832 41.403 157.955 41.8581 158.2 42.0681C158.454 42.2869 158.961 42.4007 159.758 42.427L163.276 42.5232V44.4662H148.004V42.5232L150.717 42.427C151.514 42.392 152.03 42.2782 152.275 42.0681C152.52 41.8581 152.643 41.403 152.643 40.7204V26.6998C152.643 25.9647 152.441 25.4745 152.03 25.2382C151.627 25.0107 150.665 24.8882 149.159 24.8882H147.426V23.0853L157.509 22.5252V29.0366C158.419 26.8573 159.592 25.2032 161.018 24.083C162.462 22.954 164.116 22.3939 165.98 22.3939C167.53 22.3939 168.807 22.7615 169.788 23.5141C170.785 24.258 171.275 25.1945 171.275 26.3235C171.275 27.1637 170.96 27.8551 170.33 28.3889C169.691 28.9228 168.886 29.1853 167.906 29.1853C166.856 29.1853 166.024 28.9491 165.403 28.4764C164.79 27.9951 164.484 27.3562 164.484 26.5423C164.484 26.1222 164.589 25.7371 164.79 25.387C165 25.0457 165.28 24.7656 165.639 24.5556H165.298C163.276 24.5556 161.526 25.6408 160.038 27.8026C158.559 29.9643 157.815 32.6248 157.815 35.7843V40.7291L157.832 40.7204ZM124.286 33.7976C124.286 37.0883 124.847 39.5038 125.967 41.0354C127.096 42.5582 128.864 43.3197 131.288 43.3197C133.712 43.3197 135.611 42.567 136.74 41.0617C137.861 39.5651 138.421 37.1408 138.421 33.7976C138.421 30.4544 137.861 28.0301 136.74 26.516C135.611 25.0019 133.808 24.2405 131.34 24.2405C128.872 24.2405 127.096 25.0019 125.967 26.516C124.847 28.0301 124.286 30.4631 124.286 33.7976ZM118.309 33.7976C118.309 30.3844 119.517 27.6275 121.932 25.5183C124.348 23.4003 127.481 22.3501 131.332 22.3501C135.183 22.3501 138.342 23.4003 140.74 25.5183C143.138 27.6275 144.337 30.3931 144.337 33.7976C144.337 37.2021 143.138 39.9502 140.731 42.0594C138.324 44.1599 135.191 45.2188 131.332 45.2188C127.472 45.2188 124.348 44.1686 121.932 42.0594C119.517 39.9502 118.309 37.2021 118.309 33.7976ZM70.7686 44.4662V42.4795C73.2016 42.3219 74.8557 41.8756 75.7221 41.1142C76.5798 40.3528 77.0087 38.8387 77.0087 36.5632V14.7622C76.6148 14.2109 76.0285 13.817 75.2758 13.5895C74.5231 13.3707 73.3504 13.2481 71.7663 13.2481H70.7686V11.1127H82.1023L105.199 36.2919V19.0244C105.199 16.6264 104.726 15.0423 103.781 14.2721C102.844 13.5195 101.006 13.1169 98.2845 13.0906V11.1039H114.493V13.0906C112.034 13.1781 110.362 13.6157 109.487 14.4034C108.594 15.1911 108.157 16.7314 108.157 19.0156V45.2801H105.837L80.0281 17.2478V36.5457C80.0281 38.8912 80.5182 40.4665 81.4984 41.263C82.4874 42.0594 84.299 42.4532 86.9421 42.4532V44.4399H70.7861L70.7686 44.4662Z"
				fill="currentColor" />
			<path fill-rule="evenodd" clip-rule="evenodd"
				d="M43.3405 41.97L36.2777 29.7348H50.4032C50.4032 26.4354 50.9546 20.5978 46.2198 20.4666C39.8484 20.2915 36.3389 22.5233 31.8667 23.7135C30.4664 24.0898 39.6997 17.666 41.5201 13.0099C42.1502 11.3996 41.5201 9.74549 40.9337 8.73027C40.3648 7.75005 38.9645 6.83986 37.8618 6.53354C36.7415 6.22722 35.9188 6.06969 34.8861 6.66482C33.8184 7.27745 32.8294 8.4502 32.208 9.67547C30.3526 13.3163 29.5825 17.3334 27.8846 21.6043C26.7819 17.4209 25.8629 11.3908 23.5874 8.38894C21.662 5.85089 18.2225 5.34328 15.9032 8.02136C14.4679 9.67547 13.9866 12.4673 14.8968 14.0602C17.6361 18.8212 25.0927 23.8273 24.2876 23.6172C19.3865 22.3132 17.6886 20.9304 11.9561 20.4841C10.4333 20.3615 8.55166 20.7729 7.51018 21.3768C4.78834 22.9434 5.35722 27.0392 5.35722 29.7348H19.4828L12.42 41.97L20.8218 46.8185L27.8846 34.5834L34.9474 46.8185L38.877 44.5518C39.1045 44.4643 39.3321 44.3505 39.5509 44.228C39.7172 44.1317 39.866 44.0267 40.0147 43.8954L43.358 41.97H43.3405ZM42.9904 47.3174C42.7366 47.5099 42.4653 47.685 42.1852 47.8425C41.8789 48.0175 41.5551 48.1838 41.2312 48.3326L33.0045 53.0849L27.8758 44.2017L22.7472 53.0849L5.17342 42.9414L10.302 34.067H0.0448104V28.7721C0.0448104 27.6169 -0.0252056 26.4704 0.00980204 25.3064C0.123577 21.4555 1.34009 17.8497 4.8496 15.8281C6.2149 15.0404 7.93902 14.524 9.64564 14.314C8.40287 10.752 9.4706 6.38476 11.8949 3.5929C16.3233 -1.5007 23.7625 -1.08061 27.7971 4.23179C27.9721 4.45934 28.1384 4.68689 28.2959 4.93194C29.3199 3.39161 30.6677 2.02631 32.243 1.11611C34.5798 -0.231678 36.7415 -0.222927 39.2533 0.459721C41.7126 1.13362 44.2419 2.9015 45.5197 5.11573C47.0775 7.81132 47.6026 11.0058 46.4474 13.9639C46.4124 14.0427 46.3861 14.1214 46.3511 14.2002C48.8016 14.2702 51.0684 15.1629 52.7662 16.9571C55.8994 20.2653 55.6894 24.5887 55.6894 28.7634V34.0583H45.4409L50.5695 42.9327L42.9816 47.3174H42.9904Z"
				fill="currentColor" />
			<path d="M397.751 53.7617H214.101V79.9996H397.751V53.7617Z" fill="#E3000F" />
			<path
				d="M232.497 68.793L235.452 69.6595C234.997 71.2506 234.244 72.4296 233.186 73.2038C232.128 73.971 230.792 74.3616 229.173 74.3616C227.163 74.3616 225.515 73.7082 224.222 72.3941C222.93 71.0801 222.283 69.2902 222.283 67.0102C222.283 64.6023 222.937 62.7343 224.229 61.406C225.529 60.0707 227.234 59.4102 229.351 59.4102C231.197 59.4102 232.703 59.9358 233.854 60.9799C234.543 61.5978 235.054 62.4857 235.402 63.6505L232.383 64.3395C232.206 63.5937 231.829 63.0042 231.268 62.5638C230.7 62.1305 230.011 61.9175 229.201 61.9175C228.079 61.9175 227.17 62.301 226.474 63.0681C225.771 63.8352 225.423 65.0782 225.423 66.8042C225.423 68.6296 225.771 69.9294 226.453 70.7037C227.142 71.4779 228.036 71.8685 229.137 71.8685C229.947 71.8685 230.65 71.6199 231.233 71.1298C231.815 70.6326 232.241 69.8584 232.49 68.8001"
				fill="white" />
			<path d="M240.836 59.6641H237.945V74.1112H240.836V59.6641Z" fill="white" />
			<path
				d="M243.897 74.1183V63.6416H246.788V74.1183H243.897ZM243.897 62.2282V59.6641H246.788V62.2282H243.897Z"
				fill="white" />
			<path
				d="M249.884 63.6421H252.541V65.0697C253.492 63.9688 254.629 63.4219 255.95 63.4219C256.653 63.4219 257.257 63.5568 257.768 63.8338C258.287 64.1109 258.706 64.5299 259.032 65.0839C259.515 64.5228 260.034 64.1109 260.588 63.8338C261.142 63.5568 261.739 63.4219 262.371 63.4219C263.173 63.4219 263.848 63.5781 264.409 63.8907C264.963 64.2032 265.382 64.6578 265.652 65.2686C265.851 65.709 265.951 66.4335 265.951 67.435V74.1187H263.06V68.1453C263.06 67.1082 262.96 66.4335 262.761 66.1352C262.492 65.7445 262.08 65.5456 261.526 65.5456C261.121 65.5456 260.737 65.6664 260.382 65.9008C260.027 66.1423 259.764 66.4832 259.608 66.9378C259.452 67.3924 259.373 68.1168 259.373 69.097V74.1187H256.483V68.3868C256.483 67.3711 256.433 66.7105 256.326 66.4193C256.227 66.121 256.063 65.9008 255.85 65.7587C255.637 65.6167 255.339 65.5456 254.97 65.5456C254.522 65.5456 254.124 65.6593 253.769 65.8866C253.414 66.121 253.158 66.4477 253.002 66.8809C252.846 67.3142 252.768 68.0316 252.768 69.0402V74.1258H249.877V63.6492L249.884 63.6421Z"
				fill="white" />
			<path
				d="M274.978 69.1105C274.609 69.2313 274.019 69.3662 273.217 69.5367C272.414 69.7001 271.889 69.8634 271.64 70.0197C271.264 70.2754 271.072 70.6021 271.072 70.9928C271.072 71.3834 271.221 71.7173 271.526 72.0014C271.832 72.2855 272.215 72.4276 272.677 72.4276C273.196 72.4276 273.7 72.2642 274.169 71.9375C274.517 71.6818 274.751 71.3834 274.858 71.0212C274.929 70.7868 274.971 70.3322 274.971 69.6717V69.1176L274.978 69.1105ZM271.093 66.8731L268.479 66.4257C268.778 65.4028 269.282 64.6428 270.006 64.1528C270.731 63.6627 271.796 63.4141 273.217 63.4141C274.51 63.4141 275.468 63.5561 276.101 63.8544C276.733 64.1457 277.173 64.515 277.436 64.9696C277.692 65.4171 277.819 66.241 277.819 67.4485L277.777 70.6803C277.777 71.5965 277.819 72.2784 277.912 72.7117C278.004 73.152 278.175 73.6137 278.43 74.1109H275.561C275.49 73.9262 275.39 73.6634 275.284 73.3012C275.241 73.1378 275.206 73.0313 275.184 72.9816C274.694 73.4433 274.162 73.7913 273.6 74.0257C273.039 74.2601 272.443 74.3737 271.803 74.3737C270.681 74.3737 269.793 74.0825 269.147 73.493C268.501 72.9105 268.174 72.1718 268.174 71.2769C268.174 70.6874 268.323 70.1617 268.614 69.693C268.913 69.2313 269.317 68.8761 269.857 68.6275C270.39 68.3789 271.157 68.1658 272.159 67.9812C273.508 67.7397 274.446 67.5124 274.971 67.2993V67.0223C274.971 66.4825 274.836 66.0989 274.559 65.8716C274.282 65.6443 273.764 65.5307 272.997 65.5307C272.478 65.5307 272.08 65.6301 271.789 65.829C271.498 66.0208 271.264 66.3688 271.086 66.866L271.093 66.8731Z"
				fill="white" />
			<path
				d="M285.726 63.6445V65.8463H283.744V70.0867C283.744 70.9462 283.765 71.4505 283.801 71.5925C283.837 71.7346 283.922 71.8482 284.064 71.9477C284.199 72.04 284.362 72.0826 284.554 72.0826C284.824 72.0826 285.214 71.9974 285.719 71.8198L285.96 73.972C285.286 74.249 284.533 74.3839 283.68 74.3839C283.162 74.3839 282.693 74.2987 282.274 74.1282C281.855 73.9578 281.549 73.7447 281.358 73.4748C281.159 73.2049 281.024 72.8426 280.953 72.388C280.896 72.0684 280.86 71.415 280.86 70.4277V65.8463H279.532V63.6445H280.86V61.5633L283.751 59.9297V63.6445H285.733H285.726Z"
				fill="white" />
			<path
				d="M294.42 68C294.398 67.1974 294.185 66.5865 293.773 66.1675C293.361 65.7484 292.864 65.5353 292.274 65.5353C291.642 65.5353 291.124 65.7555 290.712 66.1959C290.3 66.6363 290.101 67.24 290.108 67.9929H294.42V68ZM294.249 70.8056L297.14 71.2673C296.771 72.283 296.181 73.0501 295.385 73.5828C294.583 74.1084 293.581 74.3784 292.381 74.3784C290.477 74.3784 289.071 73.7817 288.155 72.5955C287.437 71.6438 287.075 70.4363 287.075 68.9802C287.075 67.2471 287.551 65.8834 288.496 64.9032C289.44 63.9159 290.641 63.4258 292.09 63.4258C293.716 63.4258 294.995 63.9372 295.94 64.9671C296.877 65.997 297.332 67.5738 297.289 69.6976H290.051C290.073 70.5215 290.307 71.1608 290.754 71.6154C291.195 72.0699 291.756 72.3043 292.417 72.3043C292.871 72.3043 293.248 72.1836 293.553 71.9492C293.865 71.7148 294.093 71.3312 294.256 70.8056H294.249Z"
				fill="white" />
			<path
				d="M318.313 68.6563L321.268 69.5228C320.814 71.1138 320.061 72.2929 319.002 73.0671C317.944 73.8342 316.609 74.2249 314.989 74.2249C312.979 74.2249 311.331 73.5714 310.039 72.2574C308.746 70.9434 308.1 69.1535 308.1 66.8735C308.1 64.4656 308.753 62.5976 310.046 61.2693C311.346 59.934 313.05 59.2734 315.167 59.2734C317.014 59.2734 318.519 59.799 319.67 60.8432C320.359 61.4611 320.87 62.349 321.219 63.5138L318.2 64.2028C318.022 63.457 317.646 62.8675 317.085 62.4271C316.516 61.9938 315.827 61.7807 315.018 61.7807C313.896 61.7807 312.986 62.1643 312.29 62.9314C311.587 63.6985 311.239 64.9415 311.239 66.6675C311.239 68.4929 311.587 69.7927 312.269 70.5669C312.958 71.3411 313.853 71.7318 314.954 71.7318C315.764 71.7318 316.467 71.4832 317.049 70.9931C317.632 70.4959 318.058 69.7217 318.306 68.6634"
				fill="white" />
			<path
				d="M326.055 68.7731C326.055 69.8102 326.311 70.6128 326.822 71.1597C327.341 71.7137 327.973 71.9907 328.726 71.9907C329.479 71.9907 330.111 71.7137 330.622 71.1597C331.134 70.6057 331.389 69.8031 331.389 68.7518C331.389 67.7006 331.134 66.9335 330.622 66.3866C330.111 65.8326 329.479 65.5556 328.726 65.5556C327.973 65.5556 327.334 65.8326 326.822 66.3866C326.311 66.9406 326.055 67.7361 326.055 68.7731ZM323.079 68.624C323.079 67.7006 323.313 66.8128 323.789 65.9533C324.265 65.0868 324.933 64.4333 325.807 63.9787C326.673 63.5242 327.639 63.2969 328.712 63.2969C330.367 63.2969 331.723 63.8083 332.782 64.8382C333.84 65.8681 334.365 67.1679 334.365 68.7447C334.365 70.3216 333.833 71.6498 332.767 72.6868C331.695 73.7309 330.352 74.2494 328.733 74.2494C327.731 74.2494 326.773 74.0292 325.863 73.596C324.954 73.1627 324.265 72.5234 323.789 71.6853C323.313 70.8472 323.079 69.8244 323.079 68.624Z"
				fill="white" />
			<path
				d="M336.44 63.5171H339.096V64.9447C340.048 63.8438 341.184 63.2969 342.506 63.2969C343.209 63.2969 343.812 63.4318 344.324 63.7088C344.842 63.9858 345.261 64.4049 345.588 64.9589C346.071 64.3978 346.59 63.9858 347.144 63.7088C347.698 63.4318 348.294 63.2969 348.926 63.2969C349.729 63.2969 350.404 63.4531 350.965 63.7657C351.519 64.0782 351.938 64.5328 352.208 65.1436C352.407 65.5911 352.506 66.3085 352.506 67.31V73.9937H349.615V68.0203C349.615 66.9832 349.516 66.3085 349.317 66.0101C349.047 65.6195 348.635 65.4206 348.081 65.4206C347.676 65.4206 347.293 65.5414 346.938 65.7758C346.583 66.0173 346.32 66.3582 346.164 66.8128C346.007 67.2674 345.929 67.9918 345.929 68.972V73.9937H343.038V68.2617C343.038 67.246 342.989 66.5855 342.882 66.2943C342.783 65.996 342.619 65.7758 342.406 65.6337C342.193 65.4916 341.895 65.4206 341.525 65.4206C341.078 65.4206 340.68 65.5343 340.325 65.7616C339.97 65.996 339.714 66.3227 339.558 66.7559C339.402 67.1892 339.323 67.9066 339.323 68.9152V73.9937H336.433V63.5171H336.44Z"
				fill="white" />
			<path
				d="M354.36 63.5138H355.966V62.7254C355.966 61.8447 356.065 61.1841 356.264 60.7508C356.463 60.3105 356.825 59.9624 357.351 59.6854C357.883 59.4155 358.551 59.2734 359.361 59.2734C360.17 59.2734 361.001 59.3942 361.797 59.6286L361.428 61.5534C360.959 61.4469 360.504 61.3972 360.064 61.3972C359.624 61.3972 359.332 61.4895 359.141 61.6813C358.956 61.8731 358.856 62.2353 358.856 62.768V63.5138H361.03V65.6944H358.856V73.9905H355.966V65.6944H354.36V63.5138Z"
				fill="white" />
			<path
				d="M364.994 68.7731C364.994 69.8102 365.249 70.6128 365.761 71.1597C366.279 71.7137 366.911 71.9907 367.664 71.9907C368.417 71.9907 369.049 71.7137 369.561 71.1597C370.072 70.6057 370.328 69.8031 370.328 68.7518C370.328 67.7006 370.072 66.9335 369.561 66.3866C369.049 65.8326 368.417 65.5556 367.664 65.5556C366.911 65.5556 366.272 65.8326 365.761 66.3866C365.249 66.9406 364.994 67.7361 364.994 68.7731ZM362.018 68.624C362.018 67.7006 362.252 66.8128 362.728 65.9533C363.204 65.0868 363.871 64.4333 364.745 63.9787C365.612 63.5242 366.578 63.2969 367.65 63.2969C369.305 63.2969 370.662 63.8083 371.72 64.8382C372.778 65.8681 373.304 67.1679 373.304 68.7447C373.304 70.3216 372.771 71.6498 371.706 72.6868C370.64 73.7309 369.291 74.2494 367.671 74.2494C366.67 74.2494 365.711 74.0292 364.802 73.596C363.893 73.1627 363.204 72.5234 362.728 71.6853C362.252 70.8472 362.018 69.8244 362.018 68.624Z"
				fill="white" />
			<path
				d="M378.105 73.9852H375.214V63.5085H377.892V64.993C378.353 64.2899 378.765 63.8282 379.135 63.608C379.504 63.3878 379.923 63.2812 380.392 63.2812C381.052 63.2812 381.692 63.4588 382.302 63.7998L381.408 66.2147C380.917 65.9093 380.463 65.7601 380.044 65.7601C379.625 65.7601 379.291 65.8667 379.007 66.0798C378.723 66.2929 378.502 66.6764 378.339 67.2375C378.176 67.7986 378.098 68.9635 378.098 70.7463V73.9781L378.105 73.9852Z"
				fill="white" />
			<path
				d="M389.391 63.5117V65.7135H387.409V69.9539C387.409 70.8134 387.431 71.3177 387.466 71.4597C387.502 71.6018 387.587 71.7154 387.729 71.8149C387.864 71.9072 388.027 71.9498 388.219 71.9498C388.489 71.9498 388.88 71.8646 389.384 71.687L389.625 73.8392C388.951 74.1162 388.198 74.2511 387.345 74.2511C386.827 74.2511 386.358 74.1659 385.939 73.9954C385.52 73.825 385.214 73.6119 385.023 73.342C384.824 73.0721 384.689 72.7098 384.618 72.2552C384.561 71.9356 384.525 71.2822 384.525 70.2949V65.7135H383.197V63.5117H384.525V61.4305L387.416 59.7969V63.5117H389.398H389.391Z"
				fill="white" />
			<path d="M305.677 67.2383H299.98V70.0013H305.677V67.2383Z" fill="white" />
			
		</g>
	</symbol>
	<symbol id="svg-logo-text" viewBox="0 0 345 38">
		<g>
			<path
				d="M294.189 36.9059V34.856L296.788 34.7544C297.646 34.7175 298.19 34.5975 298.439 34.3758C298.697 34.1542 298.817 33.6741 298.817 32.9538V18.1519C298.817 17.3763 298.605 16.8592 298.162 16.5914C297.72 16.3329 296.807 16.2036 295.415 16.2036C295.23 16.2036 294.935 16.2036 294.53 16.2313C294.124 16.2498 293.792 16.259 293.562 16.259V14.3568L304.017 13.7566V18.4382C305.289 16.8407 306.681 15.6496 308.193 14.9016C309.705 14.1352 311.41 13.7566 313.328 13.7566C315.439 13.7566 317.173 14.1444 318.537 14.9293C319.902 15.705 320.888 16.8592 321.515 18.392C322.833 16.7761 324.244 15.6034 325.756 14.8647C327.259 14.126 329.02 13.7566 331.011 13.7566C333.832 13.7566 336.008 14.4307 337.557 15.7881C339.096 17.1454 339.871 19.0661 339.871 21.5592V32.9631C339.871 33.6741 340 34.145 340.258 34.3758C340.516 34.6067 341.06 34.736 341.899 34.7637L344.499 34.8652V36.9152H329.914V34.8652L332.329 34.7637C333.168 34.7267 333.722 34.5975 333.998 34.3481C334.275 34.1081 334.413 33.6464 334.413 32.9631V21.3746C334.413 19.8971 333.961 18.7614 333.058 17.9765C332.154 17.1824 330.845 16.7853 329.158 16.7853C326.715 16.7853 324.889 17.4594 323.682 18.8075C322.483 20.1557 321.875 22.1964 321.875 24.9204V32.9631C321.875 33.6741 322.004 34.145 322.28 34.3758C322.548 34.6067 323.092 34.736 323.93 34.7637L326.53 34.8652V36.9152H311.945V34.8652L314.416 34.7637C315.227 34.7267 315.771 34.5975 316.039 34.3574C316.315 34.1173 316.444 33.6556 316.444 32.9631V22.0856C316.444 20.2019 316.048 18.8445 315.264 18.0134C314.481 17.1916 313.208 16.7761 311.438 16.7761C309.106 16.7761 307.345 17.4594 306.155 18.826C304.966 20.2018 304.367 22.2241 304.367 24.9111V32.9538C304.367 33.6925 304.496 34.1727 304.754 34.3943C305.021 34.6067 305.556 34.7267 306.395 34.7637L308.7 34.8652V36.9152H294.225L294.189 36.9059ZM268.872 25.6498C268.872 29.1218 269.462 31.6703 270.642 33.2862C271.831 34.8929 273.694 35.6963 276.247 35.6963C278.801 35.6963 280.802 34.9022 281.991 33.3139C283.171 31.735 283.761 29.1772 283.761 25.6498C283.761 22.1225 283.171 19.5647 281.991 17.9673C280.802 16.3698 278.903 15.5664 276.303 15.5664C273.703 15.5664 271.831 16.3698 270.642 17.9673C269.462 19.5647 268.872 22.1317 268.872 25.6498ZM262.575 25.6498C262.575 22.0486 263.847 19.14 266.392 16.9146C268.937 14.68 272.237 13.5719 276.294 13.5719C280.35 13.5719 283.678 14.68 286.205 16.9146C288.731 19.14 289.994 22.0579 289.994 25.6498C289.994 29.2418 288.731 32.1412 286.195 34.3666C283.66 36.5827 280.359 37.7 276.294 37.7C272.228 37.7 268.937 36.592 266.392 34.3666C263.847 32.1412 262.575 29.2418 262.575 25.6498ZM237.378 25.6498C237.378 29.1218 237.968 31.6703 239.148 33.2862C240.338 34.8929 242.2 35.6963 244.754 35.6963C247.308 35.6963 249.308 34.9022 250.498 33.3139C251.678 31.735 252.268 29.1772 252.268 25.6498C252.268 22.1225 251.678 19.5647 250.498 17.9673C249.308 16.3698 247.409 15.5664 244.809 15.5664C242.209 15.5664 240.338 16.3698 239.148 17.9673C237.968 19.5647 237.378 22.1317 237.378 25.6498ZM231.081 25.6498C231.081 22.0486 232.354 19.14 234.898 16.9146C237.443 14.68 240.743 13.5719 244.8 13.5719C248.857 13.5719 252.185 14.68 254.711 16.9146C257.237 19.14 258.5 22.0579 258.5 25.6498C258.5 29.2418 257.237 32.1412 254.702 34.3666C252.166 36.5827 248.866 37.7 244.8 37.7C240.734 37.7 237.443 36.592 234.898 34.3666C232.354 32.1412 231.081 29.2418 231.081 25.6498ZM212.366 36.9059V34.856L215.289 34.7544C216.128 34.7175 216.681 34.5882 216.957 34.3666C217.234 34.1358 217.372 33.6648 217.372 32.9538V5.23375C217.372 4.4581 217.16 3.941 216.718 3.67322C216.284 3.41467 215.381 3.2854 214.025 3.2854C213.86 3.2854 213.583 3.2854 213.187 3.3131C212.79 3.33157 212.467 3.3408 212.228 3.3408V1.43862L222.941 0.847656V32.9631C222.941 33.6741 223.07 34.145 223.346 34.3758C223.614 34.6067 224.176 34.736 225.024 34.7637L227.679 34.8652V36.9152H212.338L212.366 36.9059ZM182.974 6.07403V17.6164H187.861C192.12 17.6164 195.07 17.1085 196.73 16.0743C198.389 15.0401 199.228 13.2672 199.228 10.7371C199.228 8.20705 198.509 6.57265 197.053 5.51999C195.605 4.46733 193.199 3.941 189.861 3.941H186.017C184.828 3.941 184.016 4.07951 183.601 4.36576C183.186 4.64278 182.974 5.21528 182.974 6.08326V6.07403ZM170.012 36.9059V34.6252H173.183C174.474 34.6252 175.341 34.4589 175.783 34.1358C176.217 33.8126 176.438 33.1847 176.438 32.2705V6.36028C176.438 5.45536 176.226 4.84592 175.783 4.5135C175.341 4.19032 174.483 4.02411 173.183 4.02411H170.012V1.71564H193.116C197.403 1.71564 200.676 2.44511 202.925 3.90407C205.175 5.35378 206.3 7.49604 206.3 10.3031C206.3 12.4085 205.442 14.1444 203.718 15.511C201.994 16.8777 199.431 17.8472 196.038 18.4382C200.233 18.8629 203.377 19.8233 205.451 21.3099C207.526 22.8058 208.568 24.8465 208.568 27.4504C208.568 30.4422 207.148 32.7692 204.327 34.4128C201.506 36.0656 197.513 36.8875 192.36 36.8875H170.012V36.9059ZM182.974 19.7586V32.3167C182.974 33.2493 183.196 33.868 183.647 34.1635C184.099 34.4682 184.984 34.6159 186.321 34.6159H190.682C194.379 34.6159 197.053 34.0434 198.675 32.8984C200.307 31.7442 201.118 29.8882 201.118 27.3212C201.118 24.6249 200.141 22.6858 198.196 21.5131C196.241 20.3404 193.005 19.7494 188.469 19.7494H182.974V19.7586ZM137.486 5.24298C137.486 4.46733 137.264 3.95024 136.813 3.68245C136.361 3.42391 135.448 3.29463 134.056 3.29463C133.89 3.29463 133.604 3.29463 133.199 3.32233C132.793 3.3408 132.461 3.35003 132.231 3.35003V1.44786L143.036 0.856889V18.1704C144.244 16.693 145.654 15.5941 147.249 14.8647C148.862 14.1352 150.67 13.7658 152.698 13.7658C155.62 13.7658 157.898 14.4399 159.502 15.7973C161.115 17.1547 161.917 19.0753 161.917 21.5685V32.9723C161.917 33.6833 162.046 34.1542 162.304 34.3851C162.563 34.6159 163.107 34.7452 163.945 34.7729L166.573 34.8745V36.9244H151.831V34.8745L154.459 34.7729C155.27 34.736 155.814 34.6067 156.081 34.3666C156.358 34.1265 156.487 33.6648 156.487 32.9723V21.3838C156.487 19.9064 155.998 18.7706 155.021 17.9857C154.053 17.1916 152.67 16.7946 150.872 16.7946C148.272 16.7946 146.299 17.4779 144.963 18.8445C143.635 20.2203 142.962 22.2425 142.962 24.9296V32.9723C142.962 33.711 143.091 34.1912 143.368 34.4128C143.635 34.6252 144.17 34.7452 144.99 34.7821L147.618 34.8837V36.9336H132.821V34.8837L135.384 34.7821C136.241 34.7452 136.803 34.6159 137.062 34.3943C137.338 34.1635 137.467 33.6833 137.467 32.9815V5.26145L137.486 5.24298ZM113.1 16.5083H108.214V14.5507C110.74 14.3937 112.695 13.4611 114.096 11.7529C115.479 10.0354 116.253 7.61608 116.392 4.46733H118.955V14.366H127.759V16.5083H118.66V30.59C118.66 32.1597 118.936 33.2493 119.489 33.8403C120.033 34.4312 120.955 34.736 122.274 34.736C123.924 34.736 125.159 34.2004 125.971 33.1293C126.782 32.0581 127.243 30.3868 127.344 28.1153L129.612 28.0876V28.7339C129.612 31.6703 128.801 33.9049 127.169 35.447C125.537 36.9798 123.168 37.7554 120.07 37.7554C117.544 37.7554 115.746 37.2568 114.695 36.2688C113.644 35.2808 113.119 33.5263 113.119 31.0239V16.5175L113.1 16.5083ZM92.2643 32.9631C92.2643 33.6833 92.3934 34.1635 92.6516 34.3851C92.9189 34.6159 93.4536 34.736 94.2926 34.7637L97.9988 34.8652V36.9152H81.9109V34.8652L84.7689 34.7637C85.6079 34.7267 86.1518 34.6067 86.41 34.3851C86.6681 34.1635 86.7972 33.6833 86.7972 32.9631V18.1704C86.7972 17.3948 86.5852 16.8777 86.1518 16.6283C85.7277 16.3883 84.7136 16.259 83.1279 16.259H81.3024V14.3568L91.9232 13.7658V20.6358C92.882 18.3366 94.1174 16.5914 95.6202 15.4095C97.1414 14.2183 98.8839 13.6273 100.848 13.6273C102.479 13.6273 103.826 14.0152 104.858 14.8093C105.909 15.5941 106.425 16.5822 106.425 17.7733C106.425 18.6598 106.093 19.3893 105.43 19.9525C104.757 20.5158 103.908 20.7928 102.876 20.7928C101.77 20.7928 100.894 20.5435 100.239 20.0449C99.5938 19.537 99.2711 18.8629 99.2711 18.0042C99.2711 17.561 99.3817 17.1547 99.5938 16.7853C99.8151 16.4252 100.11 16.1297 100.488 15.9081H100.129C97.9988 15.9081 96.1549 17.0531 94.5876 19.3339C93.0295 21.6146 92.2459 24.4217 92.2459 27.7552V32.9723L92.2643 32.9631ZM56.9262 25.6591C56.9262 29.131 57.5163 31.6795 58.6963 33.2955C59.8857 34.9022 61.748 35.7055 64.3018 35.7055C66.8556 35.7055 68.8562 34.9114 70.0455 33.3232C71.2256 31.7442 71.8156 29.1864 71.8156 25.6591C71.8156 22.1317 71.2256 19.5739 70.0455 17.9765C68.8562 16.379 66.957 15.5757 64.3571 15.5757C61.7572 15.5757 59.8857 16.379 58.6963 17.9765C57.5163 19.5739 56.9262 22.141 56.9262 25.6591ZM50.6293 25.6591C50.6293 22.0579 51.9016 19.1492 54.4462 16.9238C56.9907 14.6892 60.2913 13.5812 64.3479 13.5812C68.4044 13.5812 71.7326 14.6892 74.2588 16.9238C76.7849 19.1492 78.048 22.0671 78.048 25.6591C78.048 29.251 76.7849 32.1505 74.2495 34.3758C71.7142 36.592 68.4136 37.7093 64.3479 37.7093C60.2821 37.7093 56.9907 36.6012 54.4462 34.3758C51.9016 32.1505 50.6293 29.251 50.6293 25.6591ZM0.549316 36.9152V34.8191C3.11232 34.6529 4.8548 34.1819 5.76752 33.3786C6.67103 32.5752 7.12278 30.9778 7.12278 28.577V5.5754C6.70791 4.99366 6.09021 4.57814 5.29734 4.33806C4.50447 4.10721 3.26905 3.97794 1.60033 3.97794H0.549316V1.72487H12.4885L36.8186 28.2907V10.0723C36.8186 7.54221 36.3208 5.87088 35.3251 5.0583C34.3386 4.26419 32.4025 3.83943 29.5352 3.81173V1.71564H46.6097V3.81173C44.019 3.90407 42.2581 4.36576 41.3361 5.19681C40.3957 6.02786 39.9348 7.65302 39.9348 10.0631V37.7739H37.4916L10.3035 8.19782V28.5585C10.3035 31.0332 10.8198 32.6953 11.8524 33.5356C12.8942 34.3758 14.8026 34.7914 17.5869 34.7914V36.8875H0.567759L0.549316 36.9152Z"
				fill="white" />
			
		</g>
	</symbol>
	<symbol id="svg-logo-label"  viewBox="0 0 175 27">
		<g>
			<path d="M175 0.349609H0.394043V27H175V0.349609Z" fill="#E3000F" />
			<path
				d="M17.8847 15.6163L20.6939 16.4965C20.2617 18.1125 19.5459 19.3101 18.5397 20.0965C17.5335 20.8757 16.2639 21.2724 14.7242 21.2724C12.8131 21.2724 11.2464 20.6087 10.0174 19.274C8.78834 17.9394 8.17383 16.1213 8.17383 13.8054C8.17383 11.3597 8.7951 9.46232 10.0241 8.11321C11.26 6.75688 12.8807 6.08594 14.8931 6.08594C16.6489 6.08594 18.0805 6.6198 19.1745 7.68034C19.8295 8.308 20.3158 9.20982 20.6467 10.393L17.7766 11.0928C17.6078 10.3353 17.2499 9.73647 16.7164 9.28918C16.1762 8.84909 15.5211 8.63265 14.7513 8.63265C13.6843 8.63265 12.8199 9.02223 12.1581 9.8014C11.4896 10.5806 11.1587 11.8431 11.1587 13.5962C11.1587 15.4503 11.4896 16.7706 12.1378 17.557C12.7929 18.3434 13.6438 18.7402 14.6905 18.7402C15.4603 18.7402 16.1289 18.4877 16.6826 17.9899C17.2364 17.4848 17.6416 16.6985 17.8779 15.6235"
				fill="white" />
			<path d="M25.8129 6.3457H23.0645V21.02H25.8129V6.3457Z" fill="white" />
			<path
				d="M28.7236 21.0272V10.3858H31.4721V21.0272H28.7236ZM28.7236 8.95014V6.3457H31.4721V8.95014H28.7236Z"
				fill="white" />
			<path
				d="M34.4149 10.3858H36.9406V11.8359C37.8455 10.7176 38.926 10.1621 40.182 10.1621C40.8506 10.1621 41.4246 10.2992 41.9108 10.5806C42.4038 10.8619 42.8022 11.2876 43.1128 11.8503C43.572 11.2804 44.065 10.8619 44.5918 10.5806C45.1185 10.2992 45.6857 10.1621 46.2868 10.1621C47.0499 10.1621 47.6914 10.3208 48.2249 10.6383C48.7516 10.9557 49.15 11.4174 49.4067 12.0379C49.5957 12.4852 49.6903 13.221 49.6903 14.2383V21.0271H46.9418V14.9597C46.9418 13.9064 46.8473 13.2211 46.6582 12.9181C46.4016 12.5213 46.0099 12.3192 45.4832 12.3192C45.0982 12.3192 44.7336 12.4419 44.3959 12.68C44.0583 12.9253 43.8084 13.2716 43.6598 13.7333C43.5113 14.195 43.437 14.9309 43.437 15.9265V21.0271H40.6885V15.205C40.6885 14.1734 40.6412 13.5024 40.5399 13.2066C40.4454 12.9036 40.2901 12.68 40.0875 12.5357C39.8849 12.3914 39.6013 12.3192 39.2501 12.3192C38.8247 12.3192 38.4465 12.4347 38.1088 12.6655C37.7712 12.9036 37.5281 13.2355 37.3795 13.6756C37.231 14.1156 37.1567 14.8443 37.1567 15.8688V21.0344H34.4082V10.393L34.4149 10.3858Z"
				fill="white" />
			<path
				d="M58.2736 15.9403C57.9225 16.063 57.3619 16.2 56.5989 16.3732C55.8358 16.5391 55.336 16.7051 55.0997 16.8638C54.7418 17.1235 54.5594 17.4554 54.5594 17.8522C54.5594 18.249 54.7012 18.588 54.9916 18.8766C55.282 19.1652 55.6467 19.3095 56.0856 19.3095C56.5786 19.3095 57.0581 19.1436 57.5038 18.8117C57.8347 18.552 58.0575 18.249 58.1588 17.881C58.2263 17.6429 58.2669 17.1812 58.2669 16.5103V15.9475L58.2736 15.9403ZM54.5797 13.6678L52.0946 13.2132C52.3782 12.1743 52.8577 11.4024 53.5465 10.9046C54.2353 10.4068 55.2482 10.1543 56.5989 10.1543C57.8279 10.1543 58.7396 10.2986 59.3406 10.6016C59.9416 10.8974 60.3603 11.2725 60.6102 11.7343C60.8533 12.1888 60.9748 13.0257 60.9748 14.2521L60.9343 17.5347C60.9343 18.4654 60.9748 19.158 61.0626 19.5981C61.1504 20.0454 61.3125 20.5143 61.5556 21.0193H58.8273C58.7598 20.8317 58.6653 20.5648 58.564 20.1969C58.5235 20.0309 58.4897 19.9227 58.4694 19.8722C58.0035 20.3412 57.497 20.6947 56.9635 20.9328C56.43 21.1708 55.8628 21.2863 55.255 21.2863C54.188 21.2863 53.3439 20.9905 52.7294 20.3917C52.1148 19.8001 51.8042 19.0498 51.8042 18.1407C51.8042 17.5419 51.946 17.0081 52.2229 16.5319C52.5065 16.063 52.8914 15.7022 53.4047 15.4497C53.9111 15.1972 54.6405 14.9808 55.5927 14.7932C56.8757 14.5479 57.7671 14.3171 58.2669 14.1006V13.8193C58.2669 13.271 58.1386 12.8814 57.8752 12.6505C57.6118 12.4196 57.1188 12.3042 56.3895 12.3042C55.8965 12.3042 55.5184 12.4052 55.2415 12.6072C54.9646 12.802 54.7418 13.1555 54.5729 13.6605L54.5797 13.6678Z"
				fill="white" />
			<path
				d="M68.4916 10.3884V12.6249H66.6075V16.932C66.6075 17.8049 66.6278 18.3171 66.6616 18.4614C66.6953 18.6057 66.7764 18.7212 66.9114 18.8222C67.0397 18.9159 67.195 18.9592 67.3774 18.9592C67.634 18.9592 68.0054 18.8727 68.4849 18.6923L68.7145 20.8783C68.0729 21.1597 67.3571 21.2967 66.5468 21.2967C66.0538 21.2967 65.6081 21.2102 65.2097 21.037C64.8112 20.8639 64.5209 20.6474 64.3385 20.3733C64.1494 20.0991 64.0212 19.7312 63.9536 19.2695C63.8996 18.9448 63.8658 18.2811 63.8658 17.2783V12.6249H62.603V10.3884H63.8658V8.27457L66.6143 6.61523V10.3884H68.4984H68.4916Z"
				fill="white" />
			<path
				d="M76.7575 14.8122C76.7373 13.9969 76.5347 13.3765 76.143 12.9508C75.7513 12.5252 75.2786 12.3087 74.7181 12.3087C74.1171 12.3087 73.6241 12.5324 73.2324 12.9797C72.8408 13.427 72.6517 14.0402 72.6584 14.8049H76.7575V14.8122ZM76.5954 17.6619L79.3439 18.1308C78.9928 19.1625 78.4323 19.9417 77.6759 20.4827C76.9128 21.0166 75.9607 21.2908 74.8194 21.2908C73.0096 21.2908 71.6725 20.6848 70.8014 19.4799C70.1193 18.5132 69.7749 17.2867 69.7749 15.8078C69.7749 14.0474 70.2274 12.6622 71.1255 11.6666C72.0237 10.6638 73.1649 10.166 74.5425 10.166C76.089 10.166 77.3045 10.6855 78.2026 11.7316C79.094 12.7777 79.5263 14.3793 79.4857 16.5364H72.6044C72.6247 17.3733 72.8475 18.0226 73.273 18.4843C73.6916 18.9461 74.2251 19.1841 74.8532 19.1841C75.2854 19.1841 75.6433 19.0615 75.9336 18.8234C76.2308 18.5853 76.4469 18.1958 76.6022 17.6619H76.5954Z"
				fill="white" />
			<path
				d="M99.4745 15.4776L102.284 16.3578C101.852 17.9738 101.136 19.1714 100.13 19.9578C99.1233 20.737 97.8538 21.1338 96.3141 21.1338C94.403 21.1338 92.8363 20.47 91.6072 19.1354C90.3782 17.8007 89.7637 15.9826 89.7637 13.6668C89.7637 11.2211 90.3849 9.32365 91.614 7.97454C92.8498 6.61821 94.4705 5.94727 96.4829 5.94727C98.2387 5.94727 99.6703 6.48113 100.764 7.54166C101.419 8.16932 101.906 9.07114 102.236 10.2543L99.3664 10.9541C99.1976 10.1966 98.8397 9.5978 98.3062 9.1505C97.766 8.71042 97.1109 8.49398 96.3411 8.49398C95.2741 8.49398 94.4097 8.88356 93.7479 9.66273C93.0794 10.4419 92.7485 11.7044 92.7485 13.4576C92.7485 15.3117 93.0794 16.6319 93.7277 17.4183C94.3827 18.2047 95.2336 18.6015 96.2803 18.6015C97.0502 18.6015 97.7187 18.349 98.2725 17.8512C98.8262 17.3462 99.2314 16.5598 99.4678 15.4848"
				fill="white" />
			<path
				d="M106.835 15.5975C106.835 16.6508 107.078 17.4661 107.564 18.0216C108.057 18.5843 108.658 18.8657 109.374 18.8657C110.09 18.8657 110.691 18.5843 111.177 18.0216C111.663 17.4589 111.906 16.6436 111.906 15.5759C111.906 14.5081 111.663 13.729 111.177 13.1735C110.691 12.6107 110.09 12.3294 109.374 12.3294C108.658 12.3294 108.05 12.6107 107.564 13.1735C107.078 13.7362 106.835 14.5442 106.835 15.5975ZM104.005 15.446C104.005 14.5081 104.228 13.6063 104.681 12.7334C105.133 11.8532 105.768 11.1895 106.599 10.7277C107.422 10.266 108.341 10.0352 109.361 10.0352C110.934 10.0352 112.224 10.5546 113.23 11.6007C114.236 12.6468 114.736 13.9671 114.736 15.5687C114.736 17.1703 114.229 18.5194 113.216 19.5727C112.197 20.6332 110.92 21.1599 109.381 21.1599C108.429 21.1599 107.517 20.9363 106.653 20.4962C105.788 20.0561 105.133 19.4068 104.681 18.5555C104.228 17.7042 104.005 16.6653 104.005 15.446Z"
				fill="white" />
			<path
				d="M116.708 10.2588H119.234V11.7089C120.138 10.5907 121.219 10.0352 122.475 10.0352C123.144 10.0352 123.718 10.1722 124.204 10.4536C124.697 10.735 125.095 11.1606 125.406 11.7233C125.865 11.1534 126.358 10.735 126.885 10.4536C127.411 10.1722 127.979 10.0352 128.58 10.0352C129.343 10.0352 129.984 10.1939 130.518 10.5113C131.045 10.8287 131.443 11.2905 131.7 11.9109C131.889 12.3654 131.983 13.0941 131.983 14.1113V20.9002H129.235V14.8328C129.235 13.7795 129.14 13.0941 128.951 12.7911C128.695 12.3943 128.303 12.1923 127.776 12.1923C127.391 12.1923 127.027 12.3149 126.689 12.553C126.351 12.7983 126.101 13.1446 125.953 13.6063C125.804 14.0681 125.73 14.8039 125.73 15.7995V20.9002H122.981V15.0781C122.981 14.0464 122.934 13.3755 122.833 13.0797C122.738 12.7767 122.583 12.553 122.38 12.4087C122.178 12.2644 121.894 12.1923 121.543 12.1923C121.118 12.1923 120.739 12.3077 120.402 12.5386C120.064 12.7767 119.821 13.1085 119.672 13.5486C119.524 13.9887 119.45 14.7174 119.45 15.7418V20.9002H116.701V10.2588H116.708Z"
				fill="white" />
			<path
				d="M133.746 10.2543H135.272V9.45351C135.272 8.55891 135.367 7.88797 135.556 7.44788C135.745 7.00058 136.089 6.64707 136.589 6.36571C137.096 6.09156 137.73 5.94727 138.5 5.94727C139.27 5.94727 140.06 6.06991 140.817 6.30799L140.465 8.26311C140.02 8.1549 139.587 8.10439 139.169 8.10439C138.75 8.10439 138.473 8.19819 138.291 8.39298C138.115 8.58777 138.021 8.95571 138.021 9.4968V10.2543H140.087V12.4692H138.021V20.8957H135.272V12.4692H133.746V10.2543Z"
				fill="white" />
			<path
				d="M143.856 15.5975C143.856 16.6508 144.099 17.4661 144.585 18.0216C145.078 18.5843 145.679 18.8657 146.395 18.8657C147.111 18.8657 147.712 18.5843 148.198 18.0216C148.684 17.4589 148.927 16.6436 148.927 15.5759C148.927 14.5081 148.684 13.729 148.198 13.1735C147.712 12.6107 147.111 12.3294 146.395 12.3294C145.679 12.3294 145.071 12.6107 144.585 13.1735C144.099 13.7362 143.856 14.5442 143.856 15.5975ZM141.026 15.446C141.026 14.5081 141.249 13.6063 141.702 12.7334C142.154 11.8532 142.789 11.1895 143.62 10.7277C144.443 10.266 145.362 10.0352 146.382 10.0352C147.955 10.0352 149.245 10.5546 150.251 11.6007C151.257 12.6468 151.757 13.9671 151.757 15.5687C151.757 17.1703 151.25 18.5194 150.237 19.5727C149.225 20.6332 147.941 21.1599 146.402 21.1599C145.45 21.1599 144.538 20.9363 143.674 20.4962C142.809 20.0561 142.154 19.4068 141.702 18.5555C141.249 17.7042 141.026 16.6653 141.026 15.446Z"
				fill="white" />
			<path
				d="M156.321 20.8918H153.573V10.2504H156.119V11.7582C156.558 11.044 156.949 10.575 157.3 10.3514C157.652 10.1277 158.05 10.0195 158.496 10.0195C159.124 10.0195 159.731 10.1999 160.312 10.5462L159.461 12.9991C158.995 12.6889 158.563 12.5374 158.165 12.5374C157.766 12.5374 157.449 12.6456 157.179 12.862C156.909 13.0785 156.699 13.4681 156.544 14.038C156.389 14.6079 156.314 15.7911 156.314 17.602V20.8846L156.321 20.8918Z"
				fill="white" />
			<path
				d="M167.052 10.2537V12.4901H165.168V16.7972C165.168 17.6702 165.188 18.1824 165.222 18.3267C165.255 18.471 165.336 18.5864 165.472 18.6874C165.6 18.7812 165.755 18.8245 165.937 18.8245C166.194 18.8245 166.566 18.7379 167.045 18.5575L167.275 20.7435C166.633 21.0249 165.917 21.162 165.107 21.162C164.614 21.162 164.168 21.0754 163.77 20.9022C163.371 20.7291 163.081 20.5127 162.899 20.2385C162.71 19.9644 162.581 19.5964 162.514 19.1347C162.46 18.81 162.426 18.1463 162.426 17.1435V12.4901H161.163V10.2537H162.426V8.1398L165.174 6.48047V10.2537H167.058H167.052Z"
				fill="white" />
			<path d="M87.4604 14.0371H82.0444V16.8435H87.4604V14.0371Z" fill="white" />
		</g>
	</symbol>
	<!-- svg-bar -->
	<symbol id="svg-bar" viewBox="0 0 24 24">
		<g>
			<rect x="4" y="5" width="16" height="5" rx="1" stroke="currentColor"
				stroke-linejoin="round" />
			<rect x="4" y="14" width="16" height="5" rx="1" stroke="currentColor"
				stroke-linejoin="round" />
		</g>
	</symbol>
	<!--svg-check-->
	<symbol id="svg-check" viewBox="0 0 80 80">
		<g>
			<circle cx="40" cy="40" r="30" stroke="currentColor" stroke-width="4" />
			<path d="M26.6673 40L36.6673 50L53.334 30" stroke="currentColor" stroke-width="4"
				stroke-linecap="round" />
		</g>
	</symbol>
	<!--chevron-down-->
	<symbol id="svg-chevron-down" viewBox="0 0 24 24">
		<g>
			<path d="M18 9L12 15L6 9" stroke="currentColor" stroke-linecap="round" />
		</g>
	</symbol>
	<!--  -->
	<symbol id="svg-chevron-up" viewBox="0 0 24 24">
		<g>
			<path d="M18 15L12 9L6 15" stroke="currentColor" stroke-linecap="round" />
		</g>
	</symbol>
	<!--  -->
	<symbol id="svg-chevron-left" viewBox="0 0 24 24">
		<g>
			<path d="M15 6L9 12L15 18" stroke="currentColor" stroke-linecap="round" />
		</g>
	</symbol>
	<!--  -->
	<symbol id="svg-chevron-right" viewBox="0 0 24 24">
		<g>
			<path d="M9 6L15 12L9 18" stroke="currentColor" stroke-linecap="round" />
		</g>
	</symbol>
	<!--  -->
	<symbol id="svg-close" viewBox="0 0 24 24">
		<g>
			<path d="M18 6L6 18" stroke="currentColor" stroke-linecap="round"
				stroke-linejoin="round" />
			<path d="M6 6L18 18" stroke="currentColor" stroke-linecap="round"
				stroke-linejoin="round" />
		</g>
	</symbol>
	<symbol id="svg-burger" viewBox="0 0 24 24">
		<g>
			
			<path d="M5 7H19" stroke="curentColor" stroke-linecap="round" />
			<path d="M7 12H17" stroke="curentColor" stroke-linecap="round" />
			<path d="M5 17H19" stroke="curentColor" stroke-linecap="round" />
			
		</g>
	</symbol>
	<!--  -->
	<symbol id="svg-dry" viewBox="0 0 24 24">
		<g>
			<circle cx="12" cy="12" r="6.5" stroke="currentColor" />
			<path d="M4.5 19.5L19.5 4.5" stroke="currentColor" />
			<path d="M19.5 19.5L4.5 4.5" stroke="currentColor" />
		</g>
	</symbol>
	<!--  -->
	<symbol id="svg-eye" viewBox="0 0 24 24">
		<g>
			<circle cx="12" cy="12" r="3.5" stroke="currentColor" />
			<path
				d="M20.188 10.9343C20.5762 11.4056 20.7703 11.6412 20.7703 12C20.7703 12.3588 20.5762 12.5944 20.188 13.0657C18.7679 14.7899 15.6357 18 12 18C8.36427 18 5.23206 14.7899 3.81197 13.0657C3.42381 12.5944 3.22973 12.3588 3.22973 12C3.22973 11.6412 3.42381 11.4056 3.81197 10.9343C5.23206 9.21014 8.36427 6 12 6C15.6357 6 18.7679 9.21014 20.188 10.9343Z"
				stroke="currentColor" />
		</g>
	</symbol>
	<!--  -->
	<symbol id="svg-eye-close" viewBox="0 0 24 24">
		<g>
			<path fill-rule="evenodd" clip-rule="evenodd"
				d="M15.9202 12.7988C15.9725 12.5407 16 12.2736 16 12C16 9.79086 14.2091 8 12 8C11.7264 8 11.4593 8.02746 11.2012 8.07977L12.1239 9.00251C13.6822 9.06583 14.9342 10.3178 14.9975 11.8761L15.9202 12.7988ZM9.39311 10.5143C9.14295 10.9523 9 11.4595 9 12C9 13.6569 10.3431 15 12 15C12.5405 15 13.0477 14.857 13.4857 14.6069L14.212 15.3332C13.5784 15.7545 12.8179 16 12 16C9.79086 16 8 14.2091 8 12C8 11.1821 8.24547 10.4216 8.66676 9.78799L9.39311 10.5143Z"
				fill="currentColor" />
			<path fill-rule="evenodd" clip-rule="evenodd"
				d="M16.1545 17.2751L15.4201 16.5406C14.3561 17.1196 13.1994 17.5 12.0007 17.5C10.3289 17.5 8.73889 16.7599 7.36787 15.7735C6.00079 14.79 4.89379 13.5918 4.19865 12.7478C3.7743 12.2326 3.73047 12.1435 3.73047 12C3.73047 11.8565 3.7743 11.7674 4.19865 11.2522C4.86794 10.4396 5.91904 9.29863 7.21645 8.33704L6.50212 7.62271C5.17064 8.63072 4.10457 9.79349 3.42677 10.6164L3.36796 10.6876C3.03744 11.087 2.73047 11.4579 2.73047 12C2.73047 12.5421 3.03744 12.913 3.36796 13.3124L3.42677 13.3836C4.15172 14.2638 5.32087 15.5327 6.78385 16.5853C8.24289 17.635 10.0368 18.5 12.0007 18.5C13.5108 18.5 14.9204 17.9886 16.1545 17.2751ZM9.19066 6.06861C10.0705 5.71828 11.0142 5.5 12.0007 5.5C13.9646 5.5 15.7586 6.365 17.2176 7.41472C18.6806 8.46727 19.8498 9.73623 20.5747 10.6164L20.6335 10.6876C20.9641 11.087 21.271 11.4579 21.271 12C21.271 12.5421 20.9641 12.913 20.6335 13.3124L20.5747 13.3836C20.0943 13.9669 19.4187 14.721 18.5918 15.4697L17.8838 14.7617C18.6794 14.0456 19.3346 13.3164 19.8028 12.7478C20.2272 12.2326 20.271 12.1435 20.271 12C20.271 11.8565 20.2272 11.7674 19.8028 11.2522C19.1077 10.4082 18.0007 9.21001 16.6336 8.22646C15.2626 7.24007 13.6726 6.5 12.0007 6.5C11.3063 6.5 10.626 6.62768 9.9697 6.84765L9.19066 6.06861Z"
				fill="currentColor" />
			<path d="M5 2L21 18" stroke="currentColor" />
		</g>
	</symbol>
	<!--  -->
	<symbol id="svg-fleur" viewBox="0 0 26 24">
		<g>
			<path fill-rule="evenodd" clip-rule="evenodd"
				d="M19.7147 18.9749L16.502 13.4433H22.9274C22.9274 11.9516 23.1782 9.31241 21.0245 9.25306C18.1263 9.17392 16.5299 10.1829 14.4955 10.721C13.8586 10.8912 18.0586 7.98689 18.8867 5.88187C19.1733 5.15383 18.8867 4.40599 18.6199 3.94701C18.3612 3.50385 17.7242 3.09234 17.2226 2.95385C16.713 2.81537 16.3388 2.74414 15.869 3.0132C15.3833 3.29018 14.9335 3.82039 14.6508 4.37434C13.8068 6.02036 13.4565 7.83653 12.6842 9.76744C12.1825 7.87609 11.7645 5.14987 10.7294 3.79269C9.85361 2.64522 8.28906 2.41573 7.23407 3.62651C6.58118 4.37434 6.36222 5.63655 6.77625 6.35669C8.02232 8.50918 11.4142 10.7725 11.0479 10.6775C8.81854 10.0879 8.04621 9.46277 5.43861 9.26097C4.74591 9.20557 3.88998 9.39155 3.41623 9.66456C2.17812 10.3728 2.43689 12.2246 2.43689 13.4433H8.86233L5.64961 18.9749L9.47143 21.1669L12.6842 15.6354L15.8969 21.1669L17.6844 20.1421C17.7879 20.1026 17.8914 20.0511 17.9909 19.9957C18.0666 19.9522 18.1342 19.9047 18.2019 19.8454L19.7227 18.9749H19.7147ZM19.5555 21.3925C19.44 21.4795 19.3166 21.5587 19.1892 21.6299C19.0499 21.709 18.9026 21.7842 18.7553 21.8515L15.0131 24L12.6802 19.9839L10.3473 24L2.35329 19.4141L4.68619 15.4019H0.0203834V13.008C0.0203834 12.4858 -0.0114655 11.9674 0.00445876 11.4412C0.0562126 9.70017 0.609582 8.06998 2.20599 7.15596C2.82704 6.79985 3.6113 6.5664 4.38761 6.47144C3.8223 4.86102 4.30799 2.88659 5.41075 1.62437C7.42516 -0.678477 10.8091 -0.488551 12.6443 1.91322C12.724 2.01609 12.7996 2.11897 12.8713 2.22976C13.337 1.53337 13.9501 0.916108 14.6667 0.504602C15.7297 -0.104743 16.713 -0.100786 17.8556 0.207843C18.9742 0.512515 20.1248 1.31179 20.706 2.31285C21.4146 3.53154 21.6535 4.97577 21.128 6.31316C21.1121 6.34878 21.1001 6.38439 21.0842 6.42C22.1989 6.45165 23.23 6.85525 24.0023 7.66639C25.4275 9.16205 25.332 11.1167 25.332 13.0041V15.3979H20.6702L23.0031 19.4101L19.5515 21.3925H19.5555Z"
				fill="currentColor" />
			<path fill-rule="evenodd" clip-rule="evenodd"
				d="M16.5017 13.4445L19.7144 18.9761H19.7223L18.2016 19.8466C18.1339 19.906 18.0662 19.9534 17.9906 19.997C17.891 20.0524 17.7875 20.1038 17.684 20.1434L15.8965 21.1682L12.6838 15.6366L9.47109 21.1682L5.64927 18.9761L8.86199 13.4445H2.43655C2.43655 13.2723 2.43138 13.0875 2.426 12.895C2.39331 11.7253 2.35274 10.274 3.41589 9.6658C3.88964 9.39279 4.74556 9.20682 5.43827 9.26221C7.16501 9.39584 8.08697 9.71512 9.16018 10.0868C9.70766 10.2764 10.2945 10.4796 11.0476 10.6787C11.1558 10.7068 10.936 10.529 10.5404 10.2091C9.59702 9.44609 7.65385 7.87451 6.77591 6.35793C6.36188 5.6378 6.58084 4.37558 7.23373 3.62775C8.28871 2.41697 9.85327 2.64647 10.7291 3.79393C11.5274 4.8407 11.9587 6.70189 12.3444 8.36629C12.4587 8.85984 12.5691 9.3361 12.6838 9.76868C13.0029 8.97093 13.25 8.19276 13.4895 7.43809C13.8299 6.36612 14.1552 5.34155 14.6505 4.37558C14.9331 3.82163 15.383 3.29142 15.8687 3.01445C16.3384 2.74538 16.7127 2.81661 17.2222 2.95509C17.7238 3.09358 18.3608 3.50509 18.6196 3.94825C18.8863 4.40723 19.1729 5.15507 18.8863 5.88312C18.3428 7.26487 16.3463 8.991 15.2187 9.96592C14.6285 10.4762 14.2763 10.7807 14.4952 10.7223C15.0807 10.5674 15.6299 10.3735 16.1844 10.1778C17.5563 9.69349 18.9601 9.19794 21.0241 9.2543C22.9838 9.3083 22.9528 11.4981 22.9313 13.016C22.9291 13.1663 22.9271 13.3101 22.9271 13.4445H16.5017Z"
				fill="white" />
		</g>
	</symbol>
	<!--  -->
	<symbol id="svg-hand-wash" viewBox="0 0 24 24">
		<g>
			<path
				d="M22 5L21.6438 5.2078C20.8358 5.67909 20.4319 5.91473 20.1774 6.28772C19.923 6.6607 19.851 7.12279 19.707 8.04697L19.6364 8.5M2 5L2.35623 5.2078C3.16415 5.67909 3.56811 5.91473 3.82255 6.28772C4.07699 6.6607 4.14901 7.12279 4.29303 8.04697L4.36364 8.5M4.36364 8.5L5.47261 15.6159C5.7243 17.2309 5.85014 18.0384 6.41167 18.5192C6.97321 19 7.79044 19 9.42491 19H14.5751C16.2096 19 17.0268 19 17.5883 18.5192C18.1499 18.0384 18.2757 17.2309 18.5274 15.6159L19.6364 8.5M4.36364 8.5L5.24307 7.873C5.69223 7.55276 6.29836 7.56539 6.73379 7.90406L6.75 7.91667C7.19114 8.25977 7.80886 8.25977 8.25 7.91667V7.91667C8.69114 7.57356 9.30886 7.57356 9.75 7.91667V7.91667C10.1911 8.25977 10.8089 8.25977 11.25 7.91667V7.91667C11.6911 7.57356 12.3089 7.57356 12.75 7.91667V7.91667C13.1911 8.25977 13.8089 8.25977 14.25 7.91667V7.91667C14.6911 7.57356 15.3089 7.57356 15.75 7.91667V7.91667C16.1911 8.25977 16.8089 8.25977 17.25 7.91667L17.2662 7.90406C17.7016 7.56539 18.3078 7.55276 18.7569 7.87299L19.6364 8.5"
				stroke="#222222" stroke-linecap="round" />
			<path
				d="M16.0444 12.6531C15.8555 12.6531 15.6836 12.6076 15.5288 12.5167C15.3739 12.4244 15.2504 12.3008 15.158 12.146C15.0657 11.9897 15.0195 11.8171 15.0195 11.6282C15.0195 11.4407 15.0657 11.2695 15.158 11.1147C15.2504 10.9585 15.3739 10.8349 15.5288 10.744C15.6836 10.6516 15.8555 10.6055 16.0444 10.6055C16.2333 10.6055 16.4052 10.6516 16.56 10.744C16.7148 10.8349 16.8384 10.9585 16.9308 11.1147C17.0231 11.2695 17.0692 11.4407 17.0692 11.6282C17.0692 11.8171 17.0231 11.9897 16.9308 12.146C16.8384 12.3008 16.7148 12.4244 16.56 12.5167C16.4052 12.6076 16.2333 12.6531 16.0444 12.6531ZM16.0444 12.1076C16.1325 12.1076 16.2127 12.0863 16.2852 12.0437C16.3576 12.0011 16.4151 11.9435 16.4577 11.8711C16.5018 11.7987 16.5238 11.7177 16.5238 11.6282C16.5238 11.5401 16.5018 11.4599 16.4577 11.3874C16.4151 11.315 16.3576 11.2575 16.2852 11.2148C16.2127 11.1722 16.1325 11.1509 16.0444 11.1509C15.9563 11.1509 15.8761 11.1722 15.8036 11.2148C15.7312 11.2575 15.6729 11.315 15.6289 11.3874C15.5863 11.4599 15.565 11.5401 15.565 11.6282C15.565 11.7163 15.5863 11.7972 15.6289 11.8711C15.6715 11.9435 15.729 12.0011 15.8015 12.0437C15.8754 12.0863 15.9563 12.1076 16.0444 12.1076Z"
				fill="#222222" />
			<path
				d="M12.7885 15.0826C12.4377 15.0826 12.1365 14.9938 11.8851 14.8162C11.6351 14.6373 11.4426 14.3794 11.3077 14.0428C11.1742 13.7047 11.1074 13.2978 11.1074 12.8219C11.1088 12.3461 11.1763 11.9412 11.3098 11.6074C11.4448 11.2722 11.6373 11.0165 11.8873 10.8404C12.1387 10.6642 12.4391 10.5762 12.7885 10.5762C13.138 10.5762 13.4384 10.6642 13.6898 10.8404C13.9412 11.0165 14.1337 11.2722 14.2672 11.6074C14.4022 11.9426 14.4696 12.3475 14.4696 12.8219C14.4696 13.2992 14.4022 13.7069 14.2672 14.0449C14.1337 14.3816 13.9412 14.6387 13.6898 14.8162C13.4398 14.9938 13.1394 15.0826 12.7885 15.0826ZM12.7885 14.4157C13.0613 14.4157 13.2765 14.2814 13.4341 14.013C13.5932 13.7431 13.6728 13.3461 13.6728 12.8219C13.6728 12.4753 13.6365 12.1841 13.5641 11.9483C13.4917 11.7125 13.3894 11.535 13.2573 11.4157C13.1252 11.2949 12.9689 11.2346 12.7885 11.2346C12.5172 11.2346 12.3027 11.3695 12.1451 11.6394C11.9874 11.9078 11.9078 12.302 11.9064 12.8219C11.905 13.1699 11.9398 13.4625 12.0108 13.6998C12.0833 13.937 12.1855 14.1159 12.3176 14.2367C12.4498 14.356 12.6067 14.4157 12.7885 14.4157Z"
				fill="#222222" />
			<path
				d="M8.95366 15.0591C8.64684 15.0591 8.37411 15.0066 8.13548 14.9015C7.89826 14.7963 7.71076 14.65 7.57298 14.4625C7.43519 14.275 7.36204 14.0584 7.35352 13.8127H8.15465C8.16175 13.9306 8.20082 14.0336 8.27184 14.1216C8.34286 14.2083 8.43732 14.2757 8.55522 14.324C8.67312 14.3723 8.80522 14.3965 8.95153 14.3965C9.10778 14.3965 9.24627 14.3695 9.36701 14.3155C9.48775 14.2601 9.58221 14.1834 9.65039 14.0854C9.71857 13.9874 9.75195 13.8745 9.75053 13.7466C9.75195 13.6145 9.71786 13.498 9.64826 13.3972C9.57866 13.2963 9.47781 13.2175 9.3457 13.1607C9.21502 13.1039 9.05735 13.0755 8.87269 13.0755H8.48704V12.4661H8.87269C9.02468 12.4661 9.15749 12.4398 9.27113 12.3873C9.38619 12.3347 9.47638 12.2608 9.54173 12.1657C9.60707 12.0691 9.63903 11.9576 9.63761 11.8311C9.63903 11.7076 9.61133 11.6003 9.55451 11.5094C9.49911 11.4171 9.42028 11.3453 9.318 11.2942C9.21715 11.2431 9.09854 11.2175 8.96218 11.2175C8.82866 11.2175 8.70508 11.2417 8.59144 11.29C8.47781 11.3382 8.38619 11.4071 8.31658 11.4966C8.24698 11.5847 8.21005 11.6898 8.20579 11.812H7.44513C7.45082 11.5676 7.52113 11.3532 7.65607 11.1685C7.79244 10.9824 7.97425 10.8375 8.20153 10.7338C8.4288 10.6287 8.68377 10.5762 8.96644 10.5762C9.25763 10.5762 9.51048 10.6309 9.72496 10.7402C9.94087 10.8482 10.1078 10.9938 10.2257 11.177C10.3436 11.3603 10.4025 11.5627 10.4025 11.7843C10.4039 12.03 10.3315 12.236 10.1852 12.4022C10.0403 12.5684 9.84996 12.677 9.61417 12.7282V12.7623C9.92099 12.8049 10.1561 12.9185 10.3194 13.1032C10.4842 13.2864 10.5659 13.5144 10.5645 13.7871C10.5645 14.0314 10.4949 14.2502 10.3556 14.4434C10.2179 14.6351 10.0275 14.7857 9.78462 14.8951C9.54315 15.0044 9.26616 15.0591 8.95366 15.0591Z"
				fill="#222222" />
		</g>
	</symbol>
	<!--  -->
	<symbol id="svg-info" viewBox="0 0 24 24">
		<g>
			<circle cx="12" cy="12" r="9" stroke="currentColor" />
			<path
				d="M12.5 7.5C12.5 7.77614 12.2761 8 12 8C11.7239 8 11.5 7.77614 11.5 7.5C11.5 7.22386 11.7239 7 12 7C12.2761 7 12.5 7.22386 12.5 7.5Z"
				fill="currentColor" />
			<path d="M12 17V10" stroke="currentColor" />
		</g>
	</symbol>
	<!--  -->
	<symbol id="svg-iron" viewBox="0 0 24 24">
		<g>
			<path
				d="M3.5 17C3.5 13.134 6.63401 10 10.5 10H15.7544C17.4095 10 18.8384 11.1594 19.1793 12.779L20.2568 17.897C20.3223 18.2078 20.0851 18.5 19.7676 18.5H3.86364C3.66281 18.5 3.5 18.3372 3.5 18.1364V17Z"
				stroke="#222222" />
			<circle cx="12" cy="14" r="1.5" stroke="#222222" />
			<path
				d="M19 12V7C19 5.89543 18.1046 5 17 5H9C8.44771 5 8 5.44772 8 6V6C8 6.55228 8.44772 7 9 7H16C16.5523 7 17 7.44772 17 8V10"
				stroke="#222222" />
		</g>
	</symbol>
	<!--  -->
	<symbol id="svg-machine-drying" viewBox="0 0 24 24">
		<g>
			<path
				d="M3.5 7C3.5 5.067 5.067 3.5 7 3.5H17C18.933 3.5 20.5 5.067 20.5 7V17C20.5 18.933 18.933 20.5 17 20.5H7C5.067 20.5 3.5 18.933 3.5 17V7Z"
				stroke="#222222" />
			<circle cx="12" cy="12" r="6.5" stroke="#222222" />
			<path d="M4.5 19.5L19.5 4.5" stroke="#222222" />
			<path d="M19.5 19.5L4.5 4.5" stroke="#222222" />
		</g>
	</symbol>
	<!--  -->
	<symbol id="svg-minus" viewBox="0 0 24 24">
		<g>
			<path d="M6 12H18" stroke="currentColor" stroke-linecap="round" />
		</g>
	</symbol>
	<!--  -->
	<symbol id="svg-not-bleach" viewBox="0 0 24 24">
		<g>
			<path
				d="M11.8658 3.26833L3.10854 20.7829C3.05867 20.8827 3.1312 21 3.2427 21H20.7573C20.8688 21 20.9413 20.8827 20.8915 20.7829L12.1342 3.26833C12.0789 3.15777 11.9211 3.15777 11.8658 3.26833Z"
				stroke="#222222" stroke-linecap="round" />
			<path d="M21.0009 6.00034L3.00047 20.9996" stroke="#222222" stroke-linecap="round" />
			<path d="M2.63969 6.00229L20.6402 21.0016" stroke="#222222" stroke-linecap="round" />
		</g>
	</symbol>
	<!--  -->
	<symbol id="svg-paper" viewBox="0 0 24 24">
		<g>
			<path
				d="M11.5 6.5V15C11.5 15.8284 12.1716 16.5 13 16.5V16.5C13.8284 16.5 14.5 15.8284 14.5 15V6.5C14.5 4.84315 13.1569 3.5 11.5 3.5V3.5C9.84315 3.5 8.5 4.84315 8.5 6.5V17C8.5 19.4853 10.5147 21.5 13 21.5V21.5C15.4853 21.5 17.5 19.4853 17.5 17V9.5"
				stroke="currentColor" stroke-linecap="round" />
		</g>
	</symbol>
	<!--  -->
	<symbol id="svg-pin" viewBox="0 0 24 24">
		<g>
			<path
				d="M19.5 10C19.5 14.8352 14.4044 19.8524 12.6134 21.4665C12.26 21.785 11.74 21.785 11.3866 21.4665C9.59564 19.8524 4.5 14.8352 4.5 10C4.5 5.5 8.13401 2.5 12 2.5C16 2.5 19.5 5.5 19.5 10Z"
				stroke="currentColor" />
			<circle cx="12" cy="10" r="3.5" stroke="currentColor" />
		</g>
	</symbol>
	<!--  -->
	<symbol id="svg-plus" viewBox="0 0 24 24">
		<g>
			<path d="M12 6L12 18" stroke="currentColor" stroke-linecap="round" />
			<path d="M18 12L6 12" stroke="currentColor" stroke-linecap="round" />
		</g>
	</symbol>
	<symbol id="svg-search" viewBox="0 0 24 24">
		<g>
			<circle cx="11" cy="11" r="6" stroke="currentColor" />
			<path d="M20 20L17 17" stroke="currentColor" stroke-linecap="round" />
		</g>
	</symbol>

	<symbol id="svg-video" viewBox="0 0 24 24">
		<g>
			<path
				d="M16.2111 11.1056L9.73666 7.86833C8.93878 7.46939 8 8.04958 8 8.94164V15.0584C8 15.9504 8.93878 16.5306 9.73666 16.1317L16.2111 12.8944C16.9482 12.5259 16.9482 11.4741 16.2111 11.1056Z"
				stroke="currentColor" stroke-linecap="round" stroke-linejoin="round" />
			<circle cx="12" cy="12" r="9" stroke="currentColor" />
		</g>
	</symbol>
	<symbol id="svg-corner" viewBox="0 0 14 7">
		<g>
			<path d="M0 5L7 10L7 0L0 5Z" fill="#313131" />
		</g>
	</symbol>
	<symbol id="brand-logo" viewBox="0 0 334 318"> 
		<g>
			<path fill-rule="evenodd" clip-rule="evenodd"
				d="M259.923 251.417L217.566 178.124H302.28C302.28 158.359 305.587 123.389 277.191 122.603C238.981 121.554 217.933 134.923 191.112 142.054C182.714 144.308 238.088 105.826 249.006 77.9348C252.785 68.2882 249.006 58.3794 245.489 52.2978C242.077 46.426 233.679 40.9735 227.066 39.1385C220.348 37.3036 215.414 36.3599 209.22 39.925C202.817 43.5949 196.886 50.6201 193.159 57.96C182.032 79.7698 177.413 103.834 167.231 129.419C160.617 104.358 155.106 68.2358 141.459 50.2532C129.912 35.0492 109.285 32.0084 95.3755 48.0512C86.7676 57.96 83.8808 74.6843 89.3395 84.2261C105.768 112.747 150.487 142.735 145.658 141.477C116.265 133.665 106.083 125.382 71.7038 122.708C62.571 121.974 51.2863 124.438 45.0403 128.055C28.7168 137.44 32.1285 161.976 32.1285 178.124H116.843L74.4857 251.417L124.873 280.462L167.231 207.168L209.588 280.462L233.154 266.883C234.519 266.359 235.884 265.677 237.196 264.943C238.193 264.367 239.086 263.738 239.978 262.951L260.028 251.417H259.923ZM257.823 283.45C256.301 284.604 254.674 285.652 252.995 286.596C251.158 287.645 249.216 288.641 247.274 289.532L197.936 318L167.178 264.786L136.421 318L31.0262 257.237L61.7837 204.075H0.268739V172.357C0.268739 165.436 -0.151164 158.568 0.0587852 151.595C0.741119 128.527 8.03685 106.927 29.0842 94.8165C37.2722 90.098 47.6122 87.0048 57.8472 85.7465C50.394 64.4086 56.7974 38.2473 71.3364 21.5229C97.8949 -8.98983 142.509 -6.4733 166.706 25.3501C167.755 26.7133 168.753 28.0764 169.697 29.5443C175.838 20.3171 183.921 12.1384 193.369 6.68597C207.383 -1.38785 220.348 -1.33542 235.411 2.75392C250.16 6.79083 265.329 17.3812 272.992 30.6453C282.335 46.7929 285.484 65.929 278.556 83.6494C278.346 84.1213 278.189 84.5931 277.979 85.065C292.675 85.4844 306.269 90.832 316.452 101.58C335.242 121.397 333.982 147.296 333.982 172.304V204.023H272.52L303.277 257.184L257.771 283.45H257.823Z"
				fill="currentColor" />
		</g>
	</symbol>
</svg>